<svg version="1.2" baseProfile="tiny-ps" xmlns="http://www.w3.org/2000/svg" viewBox="0 0 1428 1120" width="1428" height="1120">
	<title>CD_ASSET_SET_Monitor_Coding-svg</title>
	<style>
		tspan { white-space:pre }
		.s0 { fill: #392a71 } 
		.s1 { fill: #53c5be } 
		.s2 { fill: #f2f2f0 } 
		.s3 { fill: #0b0b0e } 
		.s4 { fill: #d2d4d1 } 
		.s5 { fill: #6842a4 } 
		.s6 { fill: #df3ea5 } 
		.s7 { fill: #ffffff } 
		.s8 { fill: #5e40a2 } 
	</style>
	<g id="g10">
		<g id="g12">
			<path id="path14" class="s0" d="m468.76 858.63h536.13v201.99h-536.13v-201.99z" />
			<path id="path16" class="s1" d="m22.7 891.5c-12.46 0-22.65-10.19-22.65-22.65v-845.87c0-12.46 10.19-22.65 22.65-22.65h1382.26c12.45 0 22.64 10.19 22.64 22.65v845.87c0 12.45-10.19 22.65-22.64 22.65h-1382.26" />
			<path id="path18" class="s2" d="m76.82 794v-679.42c0-12.96 10.6-23.56 23.56-23.56h1227.63c12.96 0 23.56 10.6 23.56 23.56v679.42c0 12.96-10.6 23.56-23.56 23.56h-1227.63c-12.96 0-23.56-10.6-23.56-23.56z" />
			<path id="path20" class="s2" d="m708.19 42.26c0-11.7 9.57-21.27 21.27-21.27c11.7 0 21.27 9.57 21.27 21.27c0 11.7-9.57 21.27-21.27 21.27v0c-11.7 0-21.27-9.57-21.27-21.27z" />
			<path id="path22" class="s1" d="m334.68 1119.6c-9.62 0-17.48-7.87-17.48-17.48v-32.44c0-9.61 7.87-17.48 17.48-17.48h792.27c9.61 0 17.48 7.87 17.48 17.48v32.44c0 9.61-7.87 17.48-17.48 17.48h-792.27" />
			<path id="path24" class="s3" d="m1286.96 756.98h-1127.57v-491.81h1127.57v491.81" />
			<path id="path26" class="s4" d="m1269.91 186.92c9.41 0 17.05 7.63 17.05 17.05v61.2h-1127.57v-61.2c0-9.42 7.63-17.05 17.05-17.05h1093.47" />
			<path id="path28" class="s5" d="m219.58 226.05c0 8.31-6.74 15.05-15.05 15.05c-8.31 0-15.05-6.74-15.05-15.05c0-8.31 6.74-15.05 15.05-15.05c8.31 0 15.05 6.74 15.05 15.05z" />
			<path id="path30" class="s6" d="m267.73 226.05c0 8.31-6.74 15.05-15.05 15.05c-8.31 0-15.05-6.74-15.05-15.05c0-8.31 6.74-15.05 15.05-15.05c8.31 0 15.05 6.74 15.05 15.05z" />
			<path id="path32" class="s1" d="m315.88 226.05c0 8.31-6.74 15.05-15.05 15.05c-8.31 0-15.05-6.74-15.05-15.05c0-8.31 6.74-15.05 15.05-15.05c8.31 0 15.05 6.74 15.05 15.05z" />
			<path id="path34" class="s1" d="m767.65 386.98h-540.76c-15.67 0-28.38-12.71-28.38-28.38c0-15.67 12.71-28.38 28.38-28.38h540.76c15.67 0 28.38 12.71 28.38 28.38c0 15.67-12.71 28.38-28.38 28.38z" />
			<path id="path36" class="s6" d="m901.21 467.5h-674.32c-15.67 0-28.38-12.71-28.38-28.38c0-15.67 12.71-28.38 28.38-28.38h674.32c15.67 0 28.38 12.71 28.38 28.38c0 15.67-12.71 28.38-28.38 28.38z" />
			<path id="path38" class="s1" d="m655.55 544.12h-428.66c-15.67 0-28.38-12.71-28.38-28.38c0-15.67 12.71-28.38 28.38-28.38h428.66c15.67 0 28.38 12.71 28.38 28.38c0 15.67-12.71 28.38-28.38 28.38z" />
			<path id="path40" class="s6" d="m535.67 619.87h-308.78c-15.67 0-28.38-12.71-28.38-28.38c0-15.67 12.71-28.38 28.38-28.38h308.78c15.67 0 28.38 12.71 28.38 28.38c0 15.67-12.71 28.38-28.38 28.38" />
			<path id="path42" class="s7" d="m921.36 619.87h-308.78c-15.67 0-28.38-12.71-28.38-28.38c0-15.67 12.71-28.38 28.38-28.38h308.78c15.67 0 28.38 12.71 28.38 28.38c0 15.67-12.71 28.38-28.38 28.38" />
			<path id="path44" class="s8" d="m829.06 696.06h-602.17c-15.67 0-28.38-12.71-28.38-28.38c0-15.67 12.71-28.38 28.38-28.38h602.17c15.67 0 28.38 12.71 28.38 28.38c0 15.67-12.71 28.38-28.38 28.38z" />
		</g>
	</g>
</svg>